<?xml version="1.0" encoding="utf-8"?>
<!-- Generator: Adobe Illustrator 16.0.0, SVG Export Plug-In . SVG Version: 6.00 Build 0)  -->
<!DOCTYPE svg PUBLIC "-//W3C//DTD SVG 1.1//EN" "http://www.w3.org/Graphics/SVG/1.1/DTD/svg11.dtd">
<svg version="1.1" id="Layer_1" xmlns="http://www.w3.org/2000/svg" xmlns:xlink="http://www.w3.org/1999/xlink" x="0px" y="0px"
	 width="200px" height="50px" viewBox="0 0 200 50" enable-background="new 0 0 200 50" xml:space="preserve">
<g>
	<path fill-rule="evenodd" clip-rule="evenodd" fill="#2D3E81" d="M135.735,36.616c0.001-6.602,4.294-11.323,10.823-12.03
		c4.848-0.525,9.784,2.033,11.963,6.221c2.219,4.266,1.815,10.851-2.456,14.523c-2.002,1.724-4.332,2.657-6.963,2.885
		c-2.752,0.238-5.375-0.167-7.784-1.563c-3.211-1.859-4.974-4.683-5.471-8.328C135.765,37.712,135.752,37.101,135.735,36.616z
		 M147.774,28.773c-4.362-0.033-7.657,3.248-7.697,7.664c-0.039,4.405,3.262,7.799,7.647,7.773c3.97-0.021,7.743-2.693,7.788-7.696
		C155.552,32.098,152.249,28.808,147.774,28.773z"/>
	<path fill-rule="evenodd" clip-rule="evenodd" fill="#E7503E" d="M74.721,33.111c0,0.294,0,0.468,0,0.643
		c0,4.016,0.002,8.033-0.002,12.049c-0.001,0.935-0.482,1.688-1.239,1.983c-0.843,0.328-1.869,0.106-2.485-0.547
		c-0.407-0.432-0.572-0.955-0.572-1.545c0.002-6.09-0.001-12.181,0.005-18.271c0-0.787,0.105-1.592,0.945-1.925
		c0.898-0.357,1.824-0.363,2.645,0.275c0.718,0.557,1.229,1.303,1.789,2c3.13,3.896,6.255,7.798,9.382,11.697
		c0.08,0.101,0.165,0.197,0.335,0.401c0-0.287,0-0.46,0-0.631c0-3.9-0.001-7.801,0.001-11.701c0-1.146,0.636-2.131,1.558-2.431
		c1.31-0.425,2.865,0.809,2.874,2.307c0.014,2.241,0.003,4.48,0.003,6.722c0,3.768,0,7.535,0.001,11.302
		c0,0.334-0.013,0.666-0.104,0.986c-0.359,1.271-1.763,1.854-3.064,1.262c-0.567-0.258-1.047-0.639-1.435-1.131
		c-3.368-4.261-6.736-8.52-10.104-12.778C75.104,33.586,74.952,33.398,74.721,33.111z"/>
	<path fill-rule="evenodd" clip-rule="evenodd" fill="#2D3E81" d="M178.404,34.761c1.064-0.001,2.13-0.002,3.195,0
		c1.44,0.002,2.376,0.927,2.376,2.343c0.001,2.058-0.014,4.116,0.007,6.174c0.01,1.008-0.375,1.794-1.168,2.4
		c-1.914,1.465-4.092,2.232-6.482,2.428c-2.233,0.183-4.416-0.037-6.511-0.866c-2.989-1.183-4.977-3.317-5.889-6.384
		c-0.963-3.232-0.993-6.469,0.528-9.547c1.951-3.949,5.248-6.039,9.603-6.511c2.704-0.293,5.219,0.264,7.503,1.763
		c0.475,0.31,0.915,0.664,1.31,1.07c0.865,0.892,0.862,2.093,0,2.978c-0.858,0.879-2.081,0.918-2.987,0.087
		c-1.316-1.207-2.822-1.994-4.651-1.983c-4.328,0.026-7.843,3.783-7.635,8.083c0.087,1.79,0.52,3.445,1.679,4.837
		c1.717,2.061,4,2.737,6.602,2.54c1.345-0.102,2.605-0.483,3.757-1.205c0.224-0.141,0.318-0.288,0.315-0.556
		c-0.015-1.079-0.02-2.158,0.002-3.237c0.007-0.336-0.104-0.417-0.426-0.414c-1.381,0.016-2.764,0.011-4.145,0.004
		c-0.314-0.002-0.639-0.003-0.941-0.072c-0.973-0.221-1.566-1.059-1.462-2.017c0.121-1.105,0.869-1.891,1.874-1.908
		C176.04,34.743,177.222,34.761,178.404,34.761z"/>
	<path fill-rule="evenodd" clip-rule="evenodd" fill="#E7503E" d="M6.733,36.602c0-3.005-0.001-6.008,0-9.013
		c0-1.5,0.775-2.275,2.27-2.275c3.845,0,7.691-0.004,11.537,0.002c1.61,0.003,2.612,1.349,2.126,2.831
		c-0.293,0.894-1.076,1.433-2.109,1.434c-2.979,0.003-5.96,0.009-8.939-0.009c-0.405-0.002-0.536,0.086-0.526,0.511
		c0.03,1.295,0.032,2.59,0,3.884c-0.011,0.436,0.135,0.507,0.533,0.505c2.613-0.019,5.228-0.018,7.841-0.006
		c1.141,0.005,1.958,0.783,2.088,1.938c0.12,1.075-0.574,2.067-1.635,2.294c-0.289,0.062-0.595,0.06-0.893,0.061
		c-2.464,0.004-4.928,0.016-7.391-0.01c-0.457-0.005-0.551,0.133-0.542,0.559c0.028,1.276,0.026,2.556,0,3.833
		c-0.008,0.391,0.096,0.496,0.492,0.493c3.146-0.017,6.292-0.013,9.439-0.007c1.288,0.002,2.178,0.707,2.36,1.84
		c0.201,1.25-0.564,2.271-1.833,2.433c-0.197,0.025-0.399,0.023-0.598,0.023c-3.979,0.001-7.958,0.001-11.937,0.001
		c-1.502,0-2.281-0.77-2.282-2.26C6.731,42.643,6.733,39.622,6.733,36.602z"/>
	<path fill-rule="evenodd" clip-rule="evenodd" fill="#E74F3D" d="M50.229,36.601c0-3.036-0.001-6.074,0-9.11
		c0-1.376,0.789-2.175,2.152-2.176c3.878-0.002,7.757-0.003,11.636,0.001c0.9,0.001,1.643,0.334,2.027,1.184
		c0.37,0.814,0.295,1.622-0.284,2.335c-0.438,0.54-1.038,0.747-1.721,0.747c-2.979,0-5.959,0.01-8.938-0.011
		c-0.424-0.003-0.523,0.114-0.515,0.522c0.027,1.295,0.025,2.589,0.001,3.884c-0.007,0.385,0.094,0.497,0.491,0.494
		c2.613-0.019,5.227-0.015,7.84-0.007c1.07,0.003,1.88,0.684,2.082,1.716c0.199,1.013-0.329,2.03-1.244,2.413
		c-0.395,0.165-0.809,0.167-1.225,0.167c-2.481,0-4.961,0.009-7.441-0.009c-0.391-0.003-0.51,0.101-0.502,0.496
		c0.024,1.295,0.03,2.589-0.002,3.883c-0.011,0.439,0.141,0.505,0.535,0.503c3.129-0.016,6.258-0.013,9.388-0.007
		c1.226,0.002,2.082,0.635,2.331,1.698c0.299,1.279-0.496,2.414-1.812,2.574c-0.197,0.024-0.398,0.023-0.598,0.023
		c-3.995,0.001-7.99,0.002-11.985,0.001c-1.444-0.001-2.215-0.771-2.215-2.212C50.228,42.675,50.229,39.637,50.229,36.601z"/>
	<path fill-rule="evenodd" clip-rule="evenodd" fill="#E7503E" d="M36.423,41.437c1.044-2.434,2.077-4.87,3.135-7.295
		c1.112-2.55,2.243-5.093,3.377-7.633c0.45-1.009,1.349-1.483,2.425-1.319c0.985,0.15,1.708,0.875,1.827,1.835
		c0.056,0.458-0.052,0.89-0.241,1.302c-2.801,6.133-5.601,12.265-8.407,18.394c-0.366,0.799-0.943,1.387-1.867,1.46
		c-0.931,0.074-1.592-0.431-2.049-1.179c-0.709-1.162-1.218-2.427-1.806-3.65c-2.391-4.971-4.769-9.949-7.151-14.925
		c-0.4-0.836-0.384-1.649,0.217-2.379c0.619-0.752,1.43-1.075,2.4-0.845c0.797,0.189,1.249,0.769,1.564,1.484
		c1.403,3.183,2.812,6.363,4.213,9.547c0.707,1.607,1.401,3.219,2.107,4.827C36.223,41.19,36.242,41.354,36.423,41.437z"/>
	<path fill-rule="evenodd" clip-rule="evenodd" fill="#2D3E81" d="M123.739,34.739c0.862-1.266,1.701-2.497,2.54-3.729
		c1.063-1.563,2.118-3.133,3.192-4.688c0.782-1.132,2.11-1.385,3.24-0.646c1.017,0.667,1.23,1.756,0.539,2.753
		c-2.383,3.435-4.764,6.87-7.153,10.299c-0.19,0.274-0.27,0.545-0.268,0.875c0.01,1.99,0.004,3.982,0.005,5.974
		c0.001,0.99-0.245,1.845-1.254,2.278c-1.487,0.641-3.064-0.295-3.104-1.905c-0.053-2.123-0.025-4.247-0.021-6.371
		c0-0.294-0.068-0.537-0.234-0.785c-2.267-3.374-4.521-6.755-6.779-10.132c-0.798-1.194-0.622-2.302,0.492-3.051
		c1.09-0.732,2.331-0.464,3.109,0.689c1.802,2.666,3.594,5.338,5.391,8.006C123.523,34.438,123.619,34.568,123.739,34.739z"/>
	<path fill-rule="evenodd" clip-rule="evenodd" fill="#E7513E" d="M104.99,37.946c0,2.639,0.01,5.279-0.003,7.918
		c-0.009,1.641-1.541,2.646-3.069,2.035c-0.849-0.338-1.279-1.038-1.279-2.103c-0.002-3.901-0.001-7.802-0.001-11.702
		c0-1.36-0.016-2.722,0.009-4.083c0.009-0.437-0.086-0.595-0.565-0.586c-1.664,0.032-3.33,0.02-4.995,0.01
		c-1.182-0.007-1.908-0.485-2.208-1.423c-0.459-1.436,0.489-2.791,1.995-2.794c5.194-0.012,10.389-0.01,15.582,0
		c1.223,0.002,2.09,0.832,2.139,1.978c0.053,1.229-0.688,2.137-1.94,2.19c-1.711,0.074-3.427,0.061-5.14,0.039
		c-0.461-0.005-0.538,0.137-0.535,0.555C105,32.635,104.99,35.291,104.99,37.946z"/>
	<path fill-rule="evenodd" clip-rule="evenodd" fill="#2D3E81" d="M188.905,36.624c0-3.12-0.004-6.239,0.002-9.358
		c0.003-1.012,0.631-1.754,1.632-1.971c1.11-0.24,2.124,0.19,2.537,1.08c0.142,0.307,0.19,0.633,0.19,0.967
		c0,6.174,0.002,12.346-0.002,18.519c-0.001,1.167-0.734,1.984-1.88,2.129c-1.159,0.146-2.16-0.473-2.42-1.516
		c-0.054-0.222-0.057-0.46-0.058-0.69C188.904,42.729,188.905,39.676,188.905,36.624z"/>
</g>
<g>
	<path fill-rule="evenodd" clip-rule="evenodd" fill="#E64646" d="M99.987,2.476c5.256-2.229,11.157-0.313,13.815,4.487
		c3.258,5.875-0.023,13.287-6.609,14.926c-2.361,0.588-4.674,0.447-6.93-0.484c-0.059-0.024-0.111-0.065-0.167-0.099
		c1.526-0.727,2.807-1.766,3.923-3.02c0.516,0.069,1.027,0,1.537-0.071c2.881-0.406,5.334-3.044,5.467-5.884
		c0.188-3.96-3.025-7.099-7.008-6.848c-1.543,0.039-2.88,0.572-3.995,1.649c-1.759,1.594-2.473,3.563-2.079,5.902
		c0.243,1.439,0.985,2.618,2.047,3.607c-1.12,1.046-2.473,1.533-3.98,1.648c-0.085-0.14-0.164-0.286-0.259-0.419
		c-1.62-2.283-2.244-4.801-1.827-7.573c0.27-1.798,1.036-3.373,2.121-4.81C97.184,4.256,98.472,3.219,99.987,2.476z"/>
	<path fill-rule="evenodd" clip-rule="evenodd" fill="#2D3E81" d="M99.987,2.476c-1.515,0.743-2.803,1.781-3.944,3.011
		c-3.748-0.284-7.009,2.676-7.031,6.381c-0.022,3.678,3.254,6.685,6.996,6.421c1.508-0.115,2.86-0.602,3.979-1.648
		c0.743-0.564,1.261-1.308,1.64-2.142c0.904-1.994,0.732-3.944-0.294-5.846c0.073-0.146,0.163-0.278,0.23-0.43
		c0.512-1.162,1.309-2.07,2.451-2.661c2.051,2.583,2.658,5.495,1.961,8.691c-0.326,1.497-1.063,2.806-1.957,4.033
		c-1.116,1.254-2.397,2.293-3.923,3.02c-1.273,0.5-2.572,0.865-3.955,0.919c-3.1,0.121-5.815-0.827-8.017-2.997
		c-2.891-2.849-3.882-6.318-2.726-10.207c1.157-3.891,3.893-6.28,7.837-7.223C95.541,1.247,97.817,1.457,99.987,2.476z"/>
	<path fill-rule="evenodd" clip-rule="evenodd" fill="#2D3847" d="M101.333,8.652c-0.397-0.542-0.777-1.098-1.313-1.521
		c1.115-1.077,2.452-1.61,3.995-1.649c0.006,0.027,0.006,0.053,0,0.079c-1.143,0.59-1.939,1.499-2.451,2.661
		C101.496,8.375,101.406,8.507,101.333,8.652z"/>
</g>
</svg>
